<svg height="83pt" preserveAspectRatio="xMidYMid meet" viewBox="0 0 200 83" width="200pt" xmlns="http://www.w3.org/2000/svg"><g transform="matrix(.1 0 0 -.1 0 83)"><path d="m397 552c-15-16-15-20-1-40 8-12 19-22 24-22 11 0 40 29 40 40s-29 40-39 40c-4 0-15-8-24-18z"/><path d="m1230 464c0-19-4-25-15-20-33 12-45-4-45-64v-59l50 1h50v84c0 77-2 84-20 84-15 0-20-7-20-26zm0-85c0-28-4-39-12-37-24 8-22 78 2 78 5 0 10-18 10-41z"/><path d="m1690 480c0-5 9-10 20-10s20 5 20 10c0 6-9 10-20 10s-20-4-20-10z"/><path d="m850 400c0-73 2-80 19-80s21 8 23 53c4 49 4 50 12 20 6-21 15-33 26-33s21 12 28 33c10 31 10 31 11-20 1-46 4-53 21-53 18 0 20 7 20 80 0 78-1 80-25 80-20 0-26-7-36-40-7-22-15-40-19-40s-12 18-19 40c-10 33-16 40-36 40-24 0-25-2-25-80z"/><path d="m1053 443c-9-3-13-26-13-64v-60l48 3 47 3 3 48c2 27-2 55-9 63-11 14-51 18-76 7zm47-64c0-52-24-48-28 4-2 28 1 37 12 37 12 0 16-11 16-41z"/><path d="m1312 441c-9-5-12-25-10-62l3-54h45c35 0 45 4 48 18 4 19-24 24-30 5-5-14-38-4-38 12 0 5 16 10 35 10 33 0 35 2 35 34 0 35-13 46-53 46-12 0-28-4-35-9zm58-36c0-8-9-15-20-15s-20 7-20 15 9 15 20 15 20-7 20-15z"/><path d="m1430 385c0-58 2-65 20-65 17 0 20 7 20 51 0 66 24 62 28-4 2-33 7-47 18-47 22 0 20 116-2 124-9 4-23 1-30-5-10-8-14-8-14 0 0 6-9 11-20 11-18 0-20-7-20-65z"/><path d="m1571 436c-7-8-11-36-9-63l3-48 44-3c28-2 47 1 52 10 14 21 11 28-11 28-11 0-20-4-20-10 0-5-7-10-15-10s-15 7-15 15c0 10 11 15 35 15 30 0 35 3 35 24 0 14-7 32-16 40-19 20-68 21-83 2zm59-31c0-8-7-15-15-15s-15 7-15 15 7 15 15 15 15-7 15-15z"/><path d="m1690 385c0-58 2-65 20-65s20 7 20 65-2 65-20 65-20-7-20-65z"/><path d="m1772 441c-8-5-12-21-10-37 2-23 9-30 31-32 15-2 27-9 27-17 0-11-8-13-31-8-25 5-31 3-27-8 3-8 21-15 45-17 33-2 42 1 47 16 10 29-3 51-32 54-14 2-27 9-30 17-3 10 3 11 27 6s31-3 31 8c0 24-50 36-78 18z"/><path d="m80 165c-10-12-10-18 0-30 25-30 67-7 49 27-12 22-32 23-49 3z"/><path d="m607 133c-4-3-7-19-7-34 0-38 35-46 57-12 16 24 16 26-2 39-20 15-38 18-48 7z"/></g></svg>